<svg width="62" height="27" viewBox="0 0 62 27" fill="none" xmlns="http://www.w3.org/2000/svg">
<path d="M4.764 20.252C3.42 20.252 2.396 19.932 1.692 19.292C0.996 18.644 0.648 17.76 0.648 16.64C0.648 16.16 0.712 15.64 0.84 15.08C0.976 14.512 1.176 13.92 1.44 13.304L6.504 1.376L4.536 1.064L4.452 0.535999H10.38L6.456 9.524L6.6 9.572C7.288 8.764 7.984 8.168 8.688 7.784C9.392 7.392 10.084 7.196 10.764 7.196C11.668 7.196 12.388 7.516 12.924 8.156C13.468 8.788 13.74 9.724 13.74 10.964C13.74 11.932 13.576 12.872 13.248 13.784C12.928 14.696 12.48 15.544 11.904 16.328C11.328 17.112 10.66 17.8 9.9 18.392C9.148 18.976 8.332 19.432 7.452 19.76C6.58 20.088 5.684 20.252 4.764 20.252ZM4.584 19.124C5 19.124 5.464 18.924 5.976 18.524C6.496 18.116 7.016 17.576 7.536 16.904C8.056 16.224 8.532 15.472 8.964 14.648C9.404 13.824 9.756 12.988 10.02 12.14C10.292 11.292 10.428 10.5 10.428 9.764C10.428 9.26 10.36 8.892 10.224 8.66C10.096 8.42 9.888 8.3 9.6 8.3C9.304 8.3 8.876 8.524 8.316 8.972C7.756 9.412 7.16 10.036 6.528 10.844C5.896 11.652 5.308 12.608 4.764 13.712C4.548 14.16 4.352 14.636 4.176 15.14C4.008 15.644 3.872 16.128 3.768 16.592C3.672 17.048 3.624 17.444 3.624 17.78C3.624 18.22 3.712 18.556 3.888 18.788C4.064 19.012 4.296 19.124 4.584 19.124ZM14.9683 20V19.16L16.7563 18.692V9.548L14.9443 8.876V8.312L19.8043 7.172H20.3203V9.344L20.4163 9.452V18.692L23.5363 19.16V20H14.9683ZM20.1523 11.072L20.1883 9.452C20.8203 8.708 21.4443 8.14 22.0603 7.748C22.6843 7.348 23.2883 7.148 23.8723 7.148C24.4643 7.148 24.9563 7.316 25.3483 7.652C25.7403 7.988 25.9363 8.404 25.9363 8.9C25.9363 9.38 25.7923 9.784 25.5043 10.112C25.2243 10.432 24.8763 10.592 24.4603 10.592C24.0443 10.592 23.6523 10.444 23.2843 10.148C23.0523 9.948 22.8443 9.804 22.6603 9.716C22.4843 9.62 22.2963 9.572 22.0963 9.572C21.8163 9.572 21.4803 9.724 21.0883 10.028C20.7043 10.324 20.3923 10.672 20.1523 11.072ZM30.9825 16.652C30.2305 18.78 29.3545 20.54 28.3545 21.932C27.3545 23.332 26.2985 24.372 25.1865 25.052C24.0665 25.74 22.9425 26.084 21.8145 26.084C21.2225 26.084 20.6665 25.988 20.1465 25.796C19.6185 25.612 19.1945 25.352 18.8745 25.016C18.5465 24.688 18.3825 24.304 18.3825 23.864C18.3825 23.464 18.5185 23.108 18.7905 22.796C19.0625 22.492 19.4385 22.34 19.9185 22.34C20.2865 22.34 20.5625 22.428 20.7465 22.604C20.9305 22.788 21.0705 23.012 21.1665 23.276C21.2545 23.54 21.3385 23.804 21.4185 24.068C21.4985 24.332 21.6185 24.552 21.7785 24.728C21.9385 24.904 22.1825 24.988 22.5105 24.98C22.9425 24.964 23.3665 24.76 23.7825 24.368C24.1985 23.984 24.6545 23.292 25.1505 22.292C25.6385 21.292 26.2105 19.872 26.8665 18.032L30.5865 7.592C31.2025 5.856 31.9425 4.452 32.8065 3.38C33.6705 2.308 34.6145 1.524 35.6385 1.028C36.6625 0.531999 37.7185 0.283998 38.8065 0.283998C40.0465 0.283998 41.0145 0.559999 41.7105 1.112C42.4145 1.656 42.7665 2.288 42.7665 3.008C42.7665 3.4 42.6425 3.736 42.3945 4.016C42.1545 4.288 41.7825 4.424 41.2785 4.424C40.8145 4.424 40.4665 4.308 40.2345 4.076C40.0025 3.844 39.8865 3.576 39.8865 3.272C39.8865 3.056 39.9225 2.852 39.9945 2.66C40.0665 2.468 40.1025 2.292 40.1025 2.132C40.1025 1.9 39.9785 1.72 39.7305 1.592C39.4825 1.456 39.1625 1.388 38.7705 1.388C38.1785 1.388 37.6385 1.584 37.1505 1.976C36.6625 2.368 36.1825 3.02 35.7105 3.932C35.2385 4.836 34.7265 6.068 34.1745 7.628L30.9825 16.652ZM36.7185 7.412L36.3105 8.444H28.3665L28.7625 7.412H36.7185ZM39.4007 20.252C38.9447 20.252 38.5927 20.124 38.3447 19.868C38.1047 19.604 37.9847 19.248 37.9847 18.8C37.9847 18.632 38.0087 18.436 38.0567 18.212C38.1127 17.988 38.2087 17.68 38.3447 17.288C38.4807 16.896 38.6807 16.372 38.9447 15.716C39.2087 15.052 39.5487 14.208 39.9647 13.184C40.3887 12.16 40.9127 10.9 41.5367 9.404L44.9567 1.244L43.0847 0.931999L43.0127 0.535999H48.2087L42.9767 12.716C42.3847 14.084 41.9247 15.16 41.5967 15.944C41.2687 16.72 41.0367 17.296 40.9007 17.672C40.7727 18.048 40.7087 18.316 40.7087 18.476C40.7087 18.596 40.7527 18.692 40.8407 18.764C40.9287 18.828 41.0247 18.86 41.1287 18.86C41.2727 18.86 41.4487 18.804 41.6567 18.692C41.8727 18.58 42.1487 18.38 42.4847 18.092C42.8207 17.804 43.2407 17.392 43.7447 16.856L44.3207 17.192C43.4807 18.192 42.6327 18.952 41.7767 19.472C40.9207 19.992 40.1287 20.252 39.4007 20.252ZM49.1226 26.18C48.3466 26.18 47.6826 26.008 47.1306 25.664C46.5866 25.32 46.3146 24.808 46.3146 24.128C46.3146 23.672 46.4666 23.308 46.7706 23.036C47.0746 22.764 47.4346 22.628 47.8506 22.628C48.2026 22.628 48.5146 22.728 48.7866 22.928C49.0666 23.128 49.2666 23.432 49.3866 23.84C49.4986 24.216 49.6066 24.46 49.7106 24.572C49.8146 24.692 49.9746 24.752 50.1906 24.752C50.4706 24.752 50.7466 24.612 51.0186 24.332C51.2906 24.052 51.5146 23.668 51.6906 23.18L52.6266 20.66L47.5626 9.2C47.4266 8.896 47.2226 8.676 46.9506 8.54C46.6786 8.396 46.2466 8.296 45.6546 8.24V7.412H53.4066V8.24C52.9026 8.28 52.5146 8.344 52.2426 8.432C51.9786 8.52 51.8146 8.644 51.7506 8.804C51.6866 8.964 51.7066 9.172 51.8106 9.428L54.5706 15.932H54.6906L57.0786 10.124C57.3506 9.508 57.3506 9.052 57.0786 8.756C56.8146 8.46 56.2546 8.288 55.3986 8.24V7.412H61.1106V8.24C60.5266 8.352 60.0786 8.476 59.7666 8.612C59.4546 8.748 59.2106 8.936 59.0346 9.176C58.8586 9.408 58.6826 9.732 58.5066 10.148L53.0346 23.348C52.8106 23.868 52.5706 24.308 52.3146 24.668C52.0586 25.028 51.7786 25.324 51.4746 25.556C50.8906 25.972 50.1066 26.18 49.1226 26.18Z" fill="black"/>
</svg>
