<svg width="1280" height="773" viewBox="0 0 1280 773" fill="none" xmlns="http://www.w3.org/2000/svg">
<path d="M263.692 389.78L224.38 340.226V384.417L231.396 385.99V388.933H211.76V385.99L218.856 384.417V331.92L211.8 330.429V327.526H233.452L263.692 365.386V331.92L256.596 330.429V327.526H276.272V330.429L269.135 331.92V389.78H263.692ZM301.927 389.78C298.029 389.78 294.602 388.893 291.645 387.119C288.715 385.318 286.43 382.818 284.791 379.619C283.178 376.393 282.372 372.671 282.372 368.45C282.372 363.961 283.272 360.024 285.073 356.637C286.901 353.25 289.441 350.602 292.694 348.694C295.973 346.785 299.763 345.831 304.064 345.831C309.386 345.831 313.458 347.376 316.281 350.468C319.13 353.559 320.608 358.088 320.716 364.056L320.151 364.539H288.903V362.201L311.483 361.394C311.671 360.696 311.765 359.634 311.765 358.209C311.765 351.758 308.929 348.532 303.257 348.532C299.36 348.532 296.349 350.064 294.226 353.129C292.129 356.166 291.081 360.48 291.081 366.072C291.081 377.764 295.623 383.611 304.709 383.611C310.622 383.611 315.152 381.46 318.297 377.16L319.789 378.087C318.391 381.796 316.119 384.672 312.974 386.715C309.856 388.758 306.174 389.78 301.927 389.78ZM335.801 389.78C332.629 389.78 330.13 388.772 328.302 386.756C326.501 384.713 325.6 381.944 325.6 378.45C325.6 375.574 326.178 372.617 327.334 369.579C328.49 366.515 330.049 363.572 332.011 360.749C333.973 357.927 336.191 355.4 338.664 353.169C341.137 350.911 343.704 349.124 346.365 347.807C349.053 346.489 351.66 345.831 354.187 345.831C356.176 345.831 357.87 346.127 359.268 346.718C360.665 347.309 361.902 348.264 362.977 349.581L364.267 346.637H375.96L360.759 383.49C360.544 384.027 360.504 384.457 360.638 384.78C360.773 385.103 361.068 385.264 361.525 385.264C362.063 385.264 362.668 385.049 363.34 384.619C364.039 384.189 364.98 383.423 366.162 382.32C367.372 381.192 368.998 379.579 371.041 377.482L373.259 378.813C369.845 382.791 366.861 385.613 364.308 387.28C361.754 388.946 359.133 389.78 356.445 389.78C352.279 389.78 350.196 388.086 350.196 384.699C350.196 383.597 350.437 382.374 350.921 381.03C351.405 379.686 352.158 377.952 353.179 375.829L352.655 375.708C349.403 380.735 346.446 384.336 343.785 386.514C341.124 388.691 338.462 389.78 335.801 389.78ZM339.108 385.99C340.048 385.99 341.325 385.21 342.938 383.651C344.551 382.092 346.298 380.022 348.18 377.442C350.088 374.834 351.956 371.945 353.784 368.773C355.639 365.601 357.252 362.416 358.622 359.217C359.321 357.631 359.778 356.435 359.993 355.629C360.235 354.795 360.356 354.043 360.356 353.371C360.356 352.134 360.034 351.193 359.388 350.548C358.77 349.903 357.87 349.581 356.687 349.581C355.262 349.581 353.676 350.32 351.929 351.798C350.182 353.25 348.435 355.185 346.688 357.604C344.94 359.997 343.328 362.631 341.849 365.507C340.398 368.383 339.228 371.259 338.341 374.136C337.454 377.012 337.011 379.619 337.011 381.958C337.011 383.194 337.186 384.175 337.535 384.901C337.911 385.627 338.436 385.99 339.108 385.99ZM378.649 388.933V386.111L384.657 384.538V353.814L378.568 351.556V349.661L394.898 345.831H396.632V353.129L396.954 353.492V384.538L407.437 386.111V388.933H378.649ZM396.067 358.935L396.188 353.492C398.312 350.992 400.408 349.083 402.478 347.766C404.575 346.422 406.604 345.75 408.566 345.75C410.555 345.75 412.209 346.315 413.526 347.444C414.843 348.573 415.501 349.97 415.501 351.637C415.501 353.25 415.017 354.607 414.05 355.709C413.109 356.784 411.94 357.322 410.542 357.322C409.144 357.322 407.827 356.825 406.591 355.83C405.811 355.158 405.112 354.674 404.494 354.379C403.903 354.056 403.271 353.895 402.599 353.895C401.658 353.895 400.529 354.406 399.212 355.427C397.922 356.422 396.873 357.591 396.067 358.935ZM451.305 389.78C446.789 389.78 443.348 388.704 440.983 386.554C438.644 384.377 437.475 381.407 437.475 377.643C437.475 376.031 437.69 374.283 438.12 372.402C438.577 370.493 439.249 368.504 440.136 366.434L457.151 326.356L450.539 325.308L450.257 323.534H470.175L456.99 353.734L457.474 353.895C459.785 351.18 462.124 349.177 464.489 347.887C466.855 346.57 469.18 345.912 471.465 345.912C474.502 345.912 476.921 346.987 478.722 349.137C480.55 351.261 481.464 354.406 481.464 358.572C481.464 361.824 480.913 364.983 479.811 368.047C478.736 371.112 477.231 373.961 475.295 376.595C473.36 379.229 471.115 381.541 468.562 383.53C466.035 385.492 463.293 387.024 460.337 388.127C457.407 389.229 454.396 389.78 451.305 389.78ZM450.7 385.99C452.098 385.99 453.657 385.318 455.377 383.974C457.124 382.603 458.872 380.788 460.619 378.53C462.366 376.246 463.965 373.719 465.417 370.95C466.895 368.182 468.078 365.373 468.965 362.523C469.879 359.674 470.336 357.013 470.336 354.54C470.336 352.847 470.107 351.61 469.65 350.831C469.22 350.024 468.521 349.621 467.554 349.621C466.559 349.621 465.121 350.374 463.24 351.879C461.358 353.357 459.355 355.454 457.232 358.169C455.108 360.884 453.133 364.096 451.305 367.805C450.579 369.311 449.921 370.91 449.329 372.603C448.765 374.297 448.308 375.923 447.958 377.482C447.636 379.014 447.474 380.345 447.474 381.474C447.474 382.952 447.77 384.081 448.361 384.861C448.953 385.613 449.732 385.99 450.7 385.99ZM493.615 409.698C491.357 409.698 489.489 409.16 488.011 408.085C486.559 407.037 485.833 405.585 485.833 403.73C485.833 402.333 486.277 401.217 487.164 400.384C488.078 399.577 489.22 399.174 490.591 399.174C491.72 399.174 492.634 399.47 493.333 400.061C494.059 400.68 494.583 401.661 494.905 403.005C495.147 404.107 495.403 404.819 495.671 405.142C495.94 405.491 496.384 405.666 497.002 405.666C497.889 405.666 498.736 405.168 499.542 404.174C500.348 403.206 501.101 401.688 501.8 399.618L505.026 390.223L488.857 351.96C488.373 350.938 487.688 350.199 486.801 349.742C485.941 349.258 484.637 348.922 482.89 348.734V346.637H505.308V348.734C503.507 348.868 502.176 349.056 501.316 349.298C500.483 349.513 500.012 349.89 499.905 350.427C499.797 350.938 499.932 351.704 500.308 352.726L509.864 376.555H510.267L517.968 355.024C518.802 352.927 518.788 351.395 517.928 350.427C517.068 349.46 515.213 348.895 512.364 348.734V346.637H530.83V348.734C528.841 349.083 527.296 349.487 526.194 349.944C525.092 350.374 524.245 350.992 523.653 351.798C523.062 352.578 522.498 353.68 521.96 355.104L505.227 400.182C504.609 401.903 503.924 403.327 503.171 404.456C502.445 405.612 501.679 406.539 500.873 407.238C499.072 408.878 496.652 409.698 493.615 409.698Z" fill="black"/>
<path d="M623.449 388.058C622.357 386.932 621.214 385.58 620.022 384.001C618.846 382.438 617.745 380.624 616.72 378.557C615.712 376.491 614.889 374.156 614.251 371.552C613.612 368.948 613.293 366.058 613.293 362.883C613.293 360.01 613.629 357.23 614.301 354.542C614.99 351.837 615.88 349.325 616.972 347.007C618.081 344.672 619.282 342.622 620.576 340.858C621.87 339.077 623.121 337.683 624.331 336.675L624.961 337.255C624.339 338.212 623.634 339.581 622.844 341.362C622.071 343.143 621.324 345.201 620.601 347.536C619.896 349.855 619.308 352.333 618.837 354.97C618.367 357.608 618.132 360.262 618.132 362.933C618.132 367.15 618.493 370.855 619.215 374.047C619.938 377.239 620.786 379.927 621.76 382.111C622.735 384.311 623.6 386.05 624.356 387.327L623.449 388.058ZM1072.57 388.058L1071.66 387.327C1072.43 386.05 1073.3 384.311 1074.25 382.111C1075.23 379.927 1076.08 377.239 1076.8 374.047C1077.52 370.855 1077.88 367.15 1077.88 362.933C1077.88 360.262 1077.65 357.608 1077.18 354.97C1076.71 352.333 1076.11 349.855 1075.39 347.536C1074.68 345.201 1073.94 343.143 1073.15 341.362C1072.37 339.581 1071.68 338.212 1071.05 337.255L1071.68 336.675C1072.89 337.683 1074.15 339.077 1075.44 340.858C1076.73 342.622 1077.93 344.672 1079.02 347.007C1080.13 349.325 1081.02 351.837 1081.69 354.542C1082.38 357.23 1082.72 360.01 1082.72 362.883C1082.72 366.058 1082.4 368.948 1081.76 371.552C1081.13 374.156 1080.29 376.491 1079.27 378.557C1078.26 380.624 1077.16 382.438 1075.97 384.001C1074.79 385.58 1073.66 386.932 1072.57 388.058Z" fill="black"/>
<path opacity="0.8" d="M681.899 377.52V336.031H707.784V341.898H689.338V353.268H703.672V359.074H689.338V371.654H708.147V377.52H681.899ZM715.841 377.52V346.373H722.555V349.155H722.797C725.458 347.28 728.663 345.829 732.292 345.829C735.86 345.829 738.279 346.917 739.671 349.337H740.033C743.239 347.159 746.747 345.829 750.255 345.829C755.758 345.829 758.843 348.188 758.843 354.356V377.52H751.948V355.989C751.948 352.905 750.738 351.635 747.17 351.635C745.114 351.635 743.057 352.24 740.699 353.389C740.759 353.873 740.82 354.175 740.82 354.78V377.52H733.985V355.989C733.985 352.905 732.715 351.635 729.207 351.635C726.97 351.635 724.671 352.361 722.797 353.328V377.52H715.841ZM766.871 386.532V346.373H773.585V349.034H773.827C775.701 347.159 778.907 345.829 782.838 345.829C789.309 345.829 795.176 349.579 795.176 361.009V361.796C795.176 373.468 789.551 378.065 781.084 378.065C777.637 378.065 775.339 377.157 773.827 376.311V386.532H766.871ZM780.117 372.803C785.076 372.803 787.918 370.263 787.918 362.703V361.433C787.918 353.752 785.257 351.514 780.358 351.514C777.395 351.514 775.036 352.482 773.827 353.328V370.988C775.036 371.956 777.395 372.803 780.117 372.803ZM801.898 377.52V333.309H808.914V377.52H801.898ZM830.314 378.065C820.819 378.065 815.557 372.319 815.557 362.582V361.614C815.557 351.635 821.605 345.829 830.374 345.829C839.688 345.829 845.071 351.514 845.071 361.433V362.279C845.071 372.319 839.023 378.065 830.314 378.065ZM830.435 372.803C835.092 372.803 837.814 369.597 837.814 362.884V361.372C837.814 353.268 834.487 351.091 830.254 351.091C825.476 351.091 822.694 354.417 822.694 361.13V362.582C822.694 370.626 826.08 372.803 830.435 372.803ZM855.076 386.471C853.504 386.471 851.448 386.048 850.54 385.443V380.786C851.327 380.968 852.476 381.089 853.564 381.089C856.407 381.089 858.282 380.363 859.37 377.399L860.217 375.222L848.484 346.373H855.863L863.725 366.573H863.967L871.224 346.373H877.938L865.902 378.367C863.846 384.294 860.822 386.471 855.076 386.471ZM883.225 377.52V346.373H889.938V349.155H890.18C892.841 347.28 896.046 345.829 899.675 345.829C903.243 345.829 905.663 346.917 907.054 349.337H907.417C910.622 347.159 914.13 345.829 917.638 345.829C923.141 345.829 926.226 348.188 926.226 354.356V377.52H919.331V355.989C919.331 352.905 918.122 351.635 914.553 351.635C912.497 351.635 910.441 352.24 908.082 353.389C908.142 353.873 908.203 354.175 908.203 354.78V377.52H901.369V355.989C901.369 352.905 900.098 351.635 896.591 351.635C894.353 351.635 892.055 352.361 890.18 353.328V377.52H883.225ZM947.923 378.065C937.581 378.065 932.501 372.198 932.501 362.34V361.493C932.501 351.03 938.851 345.889 946.774 345.889C955.967 345.889 959.959 351.03 959.959 360.949V363.852H939.637C940.061 370.323 943.387 372.621 949.314 372.621C953.306 372.621 956.209 371.714 958.93 370.323V375.162C956.814 376.553 953.185 378.065 947.923 378.065ZM946.653 351.03C943.448 351.03 940.121 352.724 939.637 359.074H952.882C952.882 353.207 950.705 351.03 946.653 351.03ZM966.385 377.52V346.373H973.098V349.155H973.34C976.001 347.22 979.811 345.829 983.561 345.829C989.548 345.829 992.633 348.248 992.633 354.417V377.52H985.617V356.05C985.617 352.905 984.589 351.635 980.355 351.635C977.936 351.635 975.215 352.421 973.34 353.328V377.52H966.385ZM1011.34 377.883C1005.96 377.883 1002.51 375.706 1002.51 369.839V351.816H998.16V346.373H1002.51V339.055H1009.35V346.373H1016.79V351.816H1009.35V368.872C1009.35 371.472 1010.32 372.44 1013.58 372.44C1014.79 372.44 1016.06 372.259 1017.15 371.956V376.613C1015.94 377.218 1014.25 377.883 1011.34 377.883Z" fill="black"/>
<path opacity="0.5" d="M782.162 284.761V257.988H786.637V259.762H786.799C788.049 258.513 790.186 257.625 792.806 257.625C797.121 257.625 801.032 260.125 801.032 267.746V268.27C801.032 276.052 797.282 279.116 791.637 279.116C789.339 279.116 787.807 278.511 786.799 277.947V284.761H782.162ZM790.992 275.608C794.298 275.608 796.193 273.915 796.193 268.875V268.028C796.193 262.907 794.419 261.416 791.153 261.416C789.178 261.416 787.605 262.061 786.799 262.625V274.399C787.605 275.044 789.178 275.608 790.992 275.608ZM814.101 279.116C807.771 279.116 804.263 275.286 804.263 268.794V268.149C804.263 261.496 808.295 257.625 814.142 257.625C820.351 257.625 823.939 261.416 823.939 268.028V268.593C823.939 275.286 819.907 279.116 814.101 279.116ZM814.182 275.608C817.287 275.608 819.101 273.471 819.101 268.996V267.988C819.101 262.585 816.883 261.133 814.061 261.133C810.876 261.133 809.021 263.351 809.021 267.826V268.794C809.021 274.157 811.279 275.608 814.182 275.608ZM828.311 278.753V249.279H832.988V278.753H828.311ZM838.667 278.753V257.988H843.344V278.753H838.667ZM838.667 254.561V250.328H843.384V254.561H838.667ZM856.038 278.995C852.45 278.995 850.152 277.544 850.152 273.633V261.617H847.249V257.988H850.152V253.11H854.708V257.988H859.667V261.617H854.708V272.987C854.708 274.721 855.353 275.366 857.53 275.366C858.337 275.366 859.183 275.245 859.909 275.044V278.148C859.103 278.552 857.974 278.995 856.038 278.995ZM864.221 278.753V257.988H868.898V278.753H864.221ZM864.221 254.561V250.328H868.939V254.561H864.221ZM883.246 279.116C877.117 279.116 873.327 275.689 873.327 268.834V268.189C873.327 261.012 877.682 257.625 883.447 257.625C886.189 257.625 887.842 258.15 889.173 258.875V262.504C887.439 261.819 886.189 261.375 883.73 261.375C880.262 261.375 878.125 263.553 878.125 267.705V268.633C878.125 273.391 880.101 275.407 884.052 275.407C886.592 275.407 888.326 274.6 889.374 274.116V277.503C888.044 278.35 886.109 279.116 883.246 279.116ZM899.081 279.076C896.38 279.076 893.961 278.592 892.227 277.665V274.278C893.961 274.963 895.493 275.568 898.396 275.568C901.299 275.568 902.509 274.6 902.509 273.068C902.509 271.576 901.702 270.85 899.444 270.367L897.509 269.923C894.324 269.278 892.227 267.665 892.227 263.956C892.227 260.125 894.687 257.666 899.928 257.666C902.751 257.666 904.525 258.19 905.896 258.795V262.303C904.686 261.778 902.67 261.174 900.331 261.174C897.912 261.174 896.622 261.98 896.622 263.593C896.622 265.044 897.428 265.569 899.404 266.052L901.38 266.496C905.452 267.423 907.025 269.036 907.025 272.625C907.025 276.939 904.162 279.076 899.081 279.076Z" fill="black"/>
<path opacity="0.3" d="M800.894 224.263C796.585 224.263 794.468 221.819 794.468 217.711V217.358C794.468 212.999 797.114 210.857 800.415 210.857C804.245 210.857 805.909 212.999 805.909 217.132V218.341H797.441C797.618 221.038 799.004 221.995 801.473 221.995C803.137 221.995 804.346 221.617 805.48 221.038V223.054C804.598 223.633 803.086 224.263 800.894 224.263ZM800.365 212.999C799.029 212.999 797.643 213.704 797.441 216.35H802.96C802.96 213.906 802.053 212.999 800.365 212.999ZM814.054 224.263C810.224 224.263 807.855 222.121 807.855 217.837V217.434C807.855 212.948 810.577 210.832 814.18 210.832C815.894 210.832 816.927 211.159 817.759 211.613V213.881C816.675 213.452 815.894 213.175 814.357 213.175C812.19 213.175 810.854 214.536 810.854 217.132V217.711C810.854 220.685 812.089 221.945 814.558 221.945C816.146 221.945 817.23 221.441 817.885 221.138V223.255C817.053 223.784 815.844 224.263 814.054 224.263ZM825.817 224.263C821.86 224.263 819.668 221.869 819.668 217.812V217.409C819.668 213.251 822.188 210.832 825.842 210.832C829.723 210.832 831.965 213.2 831.965 217.333V217.686C831.965 221.869 829.445 224.263 825.817 224.263ZM825.867 222.071C827.807 222.071 828.941 220.735 828.941 217.938V217.308C828.941 213.931 827.555 213.024 825.791 213.024C823.801 213.024 822.641 214.41 822.641 217.207V217.812C822.641 221.164 824.053 222.071 825.867 222.071ZM834.647 224.036V211.058H837.445V212.218H837.545C838.654 211.411 840.242 210.832 841.804 210.832C844.299 210.832 845.584 211.84 845.584 214.41V224.036H842.661V215.09C842.661 213.78 842.233 213.251 840.469 213.251C839.461 213.251 838.327 213.578 837.545 213.956V224.036H834.647ZM854.363 224.263C850.407 224.263 848.215 221.869 848.215 217.812V217.409C848.215 213.251 850.735 210.832 854.389 210.832C858.269 210.832 860.512 213.2 860.512 217.333V217.686C860.512 221.869 857.992 224.263 854.363 224.263ZM854.414 222.071C856.354 222.071 857.488 220.735 857.488 217.938V217.308C857.488 213.931 856.102 213.024 854.338 213.024C852.347 213.024 851.188 214.41 851.188 217.207V217.812C851.188 221.164 852.599 222.071 854.414 222.071ZM863.194 224.036V211.058H865.991V212.218H866.092C867.201 211.436 868.537 210.832 870.049 210.832C871.535 210.832 872.543 211.285 873.123 212.293H873.274C874.61 211.386 876.071 210.832 877.533 210.832C879.826 210.832 881.111 211.814 881.111 214.385V224.036H878.239V215.065C878.239 213.78 877.735 213.251 876.248 213.251C875.391 213.251 874.534 213.503 873.551 213.982C873.577 214.183 873.602 214.309 873.602 214.561V224.036H870.754V215.065C870.754 213.78 870.225 213.251 868.763 213.251C867.831 213.251 866.873 213.553 866.092 213.956V224.036H863.194ZM885.944 227.766C885.288 227.766 884.432 227.59 884.054 227.338V225.397C884.381 225.473 884.86 225.523 885.314 225.523C886.498 225.523 887.279 225.221 887.733 223.986L888.086 223.079L883.197 211.058H886.271L889.547 219.475H889.648L892.672 211.058H895.469L890.454 224.389C889.598 226.859 888.338 227.766 885.944 227.766Z" fill="black"/>
<path opacity="0.5" d="M755.31 464.467C751.721 464.467 749.423 463.016 749.423 459.105V447.089H746.52V443.46H749.423V438.582H753.979V443.46H758.939V447.089H753.979V458.46C753.979 460.193 754.624 460.838 756.802 460.838C757.608 460.838 758.455 460.717 759.181 460.516V463.62C758.374 464.024 757.245 464.467 755.31 464.467ZM772.525 464.588C765.63 464.588 762.243 460.677 762.243 454.105V453.54C762.243 446.565 766.477 443.138 771.759 443.138C777.887 443.138 780.548 446.565 780.548 453.178V455.113H767.001C767.283 459.427 769.501 460.959 773.452 460.959C776.113 460.959 778.049 460.355 779.863 459.427V462.653C778.452 463.58 776.033 464.588 772.525 464.588ZM771.678 446.565C769.541 446.565 767.323 447.694 767.001 451.928H775.831C775.831 448.017 774.379 446.565 771.678 446.565ZM793.582 464.588C787.453 464.588 783.663 461.161 783.663 454.307V453.661C783.663 446.484 788.018 443.098 793.783 443.098C796.525 443.098 798.178 443.622 799.509 444.348V447.976C797.775 447.291 796.525 446.847 794.066 446.847C790.598 446.847 788.461 449.025 788.461 453.178V454.105C788.461 458.863 790.437 460.879 794.388 460.879C796.928 460.879 798.662 460.072 799.71 459.588V462.975C798.38 463.822 796.445 464.588 793.582 464.588ZM803.732 464.225V434.751H808.369V445.235H808.571C810.264 443.985 812.683 443.098 815.183 443.098C819.175 443.098 821.231 444.71 821.231 448.823V464.225H816.554V449.912C816.554 447.815 815.869 446.968 813.046 446.968C811.433 446.968 809.619 447.492 808.369 448.097V464.225H803.732ZM826.609 464.225V443.46H831.085V445.315H831.246C833.02 444.025 835.56 443.098 838.06 443.098C842.052 443.098 844.108 444.71 844.108 448.823V464.225H839.431V449.912C839.431 447.815 838.746 446.968 835.923 446.968C834.31 446.968 832.496 447.492 831.246 448.097V464.225H826.609ZM858.155 464.588C851.825 464.588 848.317 460.758 848.317 454.266V453.621C848.317 446.968 852.349 443.098 858.195 443.098C864.405 443.098 867.993 446.888 867.993 453.5V454.065C867.993 460.758 863.961 464.588 858.155 464.588ZM858.236 461.08C861.34 461.08 863.155 458.943 863.155 454.468V453.46C863.155 448.057 860.937 446.605 858.115 446.605C854.929 446.605 853.075 448.823 853.075 453.299V454.266C853.075 459.629 855.333 461.08 858.236 461.08ZM872.365 464.225V434.751H877.042V464.225H872.365ZM891.309 464.588C884.978 464.588 881.471 460.758 881.471 454.266V453.621C881.471 446.968 885.503 443.098 891.349 443.098C897.558 443.098 901.147 446.888 901.147 453.5V454.065C901.147 460.758 897.115 464.588 891.309 464.588ZM891.389 461.08C894.494 461.08 896.308 458.943 896.308 454.468V453.46C896.308 448.057 894.091 446.605 891.268 446.605C888.083 446.605 886.228 448.823 886.228 453.299V454.266C886.228 459.629 888.486 461.08 891.389 461.08ZM913.059 470.112C906.567 470.112 903.462 468.257 903.462 465.314C903.462 463.177 905.156 461.887 907.333 461.242V461.08C906.083 460.637 905.156 459.508 905.156 458.056C905.156 456.645 906.083 455.798 907.575 454.831C906.002 453.823 904.954 452.291 904.954 449.952V449.589C904.954 445.315 908.341 443.138 913.26 443.138C914.389 443.138 915.478 443.259 916.486 443.46H923.501V446.525H920.316C921.002 447.291 921.364 448.178 921.364 449.468V449.75C921.364 454.186 917.897 456.121 913.22 456.121C912.051 456.121 910.922 456.04 909.954 455.718C909.47 456.121 909.188 456.242 909.188 456.766C909.188 457.774 909.752 458.137 911.043 458.137H916.768C920.719 458.137 923.501 459.548 923.501 463.379C923.501 467.249 920.356 470.112 913.059 470.112ZM912.978 466.967C917.292 466.967 918.744 465.878 918.744 464.145C918.744 462.532 918.018 462.048 915.518 462.048H910.196C908.946 462.451 908.059 463.217 908.059 464.628C908.059 466.161 909.389 466.967 912.978 466.967ZM913.22 453.137C915.599 453.137 916.889 452.25 916.889 449.952V449.428C916.889 446.968 915.478 446.081 913.22 446.081C910.841 446.081 909.51 447.17 909.51 449.347V449.831C909.51 452.25 910.922 453.137 913.22 453.137ZM929.473 470.193C928.425 470.193 927.054 469.91 926.449 469.507V466.403C926.973 466.524 927.739 466.604 928.465 466.604C930.36 466.604 931.61 466.12 932.336 464.145L932.9 462.693L925.078 443.46H929.997L935.239 456.927H935.4L940.239 443.46H944.714L936.69 464.79C935.32 468.741 933.304 470.193 929.473 470.193Z" fill="black"/>
<path opacity="0.3" d="M792.886 512.325V499.347H795.809V512.325H792.886ZM792.886 497.205V494.559H795.834V497.205H792.886ZM799.308 512.325V499.347H802.105V500.506H802.206C803.315 499.699 804.902 499.12 806.465 499.12C808.96 499.12 810.245 500.128 810.245 502.698V512.325H807.322V503.379C807.322 502.068 806.893 501.539 805.129 501.539C804.121 501.539 802.987 501.867 802.206 502.245V512.325H799.308ZM818.041 512.476C815.798 512.476 814.362 511.569 814.362 509.124V501.615H812.548V499.347H814.362V496.297H817.21V499.347H820.309V501.615H817.21V508.721C817.21 509.805 817.613 510.208 818.974 510.208C819.478 510.208 820.007 510.132 820.46 510.006V511.947C819.956 512.199 819.251 512.476 818.041 512.476ZM828.8 512.551C824.491 512.551 822.374 510.107 822.374 505.999V505.647C822.374 501.287 825.02 499.145 828.322 499.145C832.152 499.145 833.815 501.287 833.815 505.42V506.629H825.348C825.524 509.326 826.91 510.283 829.38 510.283C831.043 510.283 832.253 509.905 833.387 509.326V511.342C832.505 511.921 830.993 512.551 828.8 512.551ZM828.271 501.287C826.936 501.287 825.55 501.993 825.348 504.639H830.867C830.867 502.194 829.96 501.287 828.271 501.287ZM836.493 512.325V499.347H839.29V500.859H839.391C840.096 499.926 841.432 499.246 842.793 499.246C843.146 499.246 843.473 499.271 843.599 499.321V501.892C843.272 501.841 842.843 501.816 842.541 501.816C841.382 501.816 840.222 502.144 839.391 502.673V512.325H836.493ZM849.766 512.325L845.054 499.347H848.153L851.303 508.822H851.429L854.604 499.347H857.402L852.714 512.325H849.766ZM859.701 512.325V499.347H862.624V512.325H859.701ZM859.701 497.205V494.559H862.649V497.205H859.701ZM871.818 512.551C867.508 512.551 865.392 510.107 865.392 505.999V505.647C865.392 501.287 868.038 499.145 871.339 499.145C875.169 499.145 876.832 501.287 876.832 505.42V506.629H868.365C868.542 509.326 869.928 510.283 872.397 510.283C874.06 510.283 875.27 509.905 876.404 509.326V511.342C875.522 511.921 874.01 512.551 871.818 512.551ZM871.288 501.287C869.953 501.287 868.567 501.993 868.365 504.639H873.884C873.884 502.194 872.977 501.287 871.288 501.287ZM881.882 512.325L878.278 499.347H881.352L883.646 508.62H883.746L886.367 499.347H888.736L891.382 508.62H891.483L893.776 499.347H896.422L892.844 512.325H890.046L887.426 503.53H887.35L884.754 512.325H881.882Z" fill="black"/>
<path d="M126.133 463.399L131.852 538.3L191.558 492.714L152.159 556.671L227.256 554.886L157.789 583.47L219.593 626.167L146.591 608.46L171.496 679.331L122.844 622.096L101.335 694.07L95.6167 619.169L35.911 664.755L75.31 600.797L0.21233 602.583L69.6801 573.998L7.87525 531.302L80.8774 549.008L55.9727 478.138L104.625 535.373L126.133 463.399Z" fill="black"/>
<circle cx="145" cy="721" r="49" fill="black"/>
<path d="M236.293 634.511L312.152 643.059L340.387 711.269L292.762 770.931L216.903 762.383L188.669 694.173L236.293 634.511Z" fill="#60FFCF"/>
<path d="M324.416 663.092C331.43 655.989 339.775 650.336 348.974 646.458C358.174 642.58 368.046 640.551 378.029 640.488C388.012 640.425 397.91 642.33 407.157 646.092C416.404 649.854 424.82 655.401 431.923 662.416C439.027 669.43 444.679 677.775 448.557 686.974C452.436 696.174 454.464 706.046 454.527 716.029C454.59 726.012 452.686 735.91 448.924 745.157C445.161 754.404 439.614 762.82 432.6 769.923L378.508 716.508L324.416 663.092Z" fill="black"/>
<path d="M1175.5 0L1180.87 28.9697L1202.24 8.68973L1189.56 35.2837L1218.77 31.4397L1192.88 45.5L1218.77 59.5603L1189.56 55.7163L1202.24 82.3103L1180.87 62.0303L1175.5 91L1170.13 62.0303L1148.76 82.3103L1161.44 55.7163L1132.23 59.5603L1158.12 45.5L1132.23 31.4397L1161.44 35.2837L1148.76 8.68973L1170.13 28.9697L1175.5 0Z" fill="black"/>
<path fill-rule="evenodd" clip-rule="evenodd" d="M1256.81 607.565C1276.74 656.178 1224.51 768.211 1224.51 768.211C1224.51 768.211 1104.26 739.563 1078.55 693.745C1066.65 669.133 1076.95 639.534 1101.57 627.635C1126.18 615.736 1155.78 626.043 1167.68 650.655C1155.78 626.043 1166.08 596.444 1190.7 584.545C1215.31 572.646 1244.91 582.953 1256.81 607.565Z" fill="#52FF00"/>
<path d="M1053 648L1107.56 765H998.44L1053 648Z" fill="black"/>
<rect x="1205.32" y="482" width="76" height="83" transform="rotate(20.686 1205.32 482)" fill="black"/>
<circle cx="931" cy="681" r="82" fill="black"/>
<path d="M1076.45 631.603C1046.62 646.024 1033.2 620.628 1018.12 598.557C1011.16 588.389 992.737 555.797 1018.51 554.775C1027.88 554.419 1040.32 563.689 1050.19 570.437C1057.57 575.531 1055.27 570.97 1053.44 568.065C1045.39 555.343 1032.91 535.462 1052.87 529.465C1066.3 525.415 1084.23 536.391 1095.33 546.191C1100.75 550.965 1099.33 546.986 1098.63 544.679C1096.1 536.413 1092.86 528.3 1098.76 521.429C1105.31 513.757 1116.73 512.315 1123.65 514.404C1140.6 519.527 1163.41 543.456 1162.73 562.219C1162.18 577.05 1145.81 587.851 1135.19 595.806C1116.83 609.525 1097.09 621.639 1076.41 631.669L1076.45 631.603Z" fill="#D0D0D0"/>
<path d="M607.169 717.061C609.202 708.315 609.07 698.326 602.667 690.404C599.173 686.081 595.92 684.184 591.066 682.766C580.16 679.488 572.327 683.469 565.652 689.708C563.921 691.308 563.727 690.636 563.846 688.945C564.457 681.566 563.277 673.809 555.777 669.109C544.668 662.19 534.964 664.816 525.421 673.591C524.125 674.784 523.697 675.256 523.676 673.261C523.665 658.584 506.575 652.607 495.687 655.268C478.755 659.384 467.888 678.493 462.028 694.5C456.764 708.898 453.313 732.675 472.237 738.825C480.458 741.489 490.551 738.755 496.841 731.931C498.046 730.642 498.869 729.273 498.558 731.651C494.928 758.392 528.239 763.713 540.86 747.903C542.678 745.642 542.973 746.382 542.836 748.635C542.219 760.05 551.317 770.863 562.677 772.227C586.566 775.134 600.358 746.411 607.197 717.071L607.169 717.061Z" fill="black"/>
<path fill-rule="evenodd" clip-rule="evenodd" d="M161 129.458C204.747 128.458 239.978 82.9832 240.044 27C240.112 83.6101 276.135 129.475 320.561 129.475C277.968 129.475 243.1 171.632 240.234 224.998H239.854C237.022 172.248 202.922 130.45 161 129.492V129.458Z" fill="#92E5FF"/>
</svg>
