<svg width="195" height="33" viewBox="0 0 195 33" fill="none" xmlns="http://www.w3.org/2000/svg">
<rect y="2.01645" width="194.544" height="28.224" rx="6.4512" fill="black"/>
<path d="M37.1467 9.71892V14.6158H39.1506V15.519H37.1467V22.0528H36.0741V9.71892H37.1467ZM29.2016 18.1156H29.9072C31.5019 18.1156 33.9432 17.9744 35.1286 17.7204L35.2415 18.6095C33.915 18.8635 31.4736 19.0328 29.3286 19.0328H28.115V11.0031H33.9715V11.9063H29.2016V18.1156ZM49.8084 15.6177H41.2424V12.4849H48.4819V11.1301H41.2424V10.2552H49.5685V13.3034H42.315V14.7428H49.8084V15.6177ZM50.9797 17.664H39.8454V16.7749H50.9797V17.664ZM49.7238 21.6859H41.2283V18.4825H42.3008V20.7968H49.7238V21.6859ZM65.8387 22.0528H64.7661V9.71892H65.8387V22.0528ZM62.2119 11.0313C62.1554 15.0391 59.6999 18.1015 56.5106 19.6114L55.8897 18.7647C59.0085 17.3959 60.843 14.7146 61.0688 11.9345H56.3413V11.0313H62.2119ZM79.4459 15.6036H77.4561V22.0528H76.3836V9.71892H77.4561V14.7005H79.4459V15.6036ZM75.2123 18.2285L74.535 19.047C73.2649 18.172 71.8819 16.7044 71.388 15.2085C70.9505 16.7467 69.751 18.3131 68.2975 19.3292L67.606 18.4966C69.3982 17.3959 70.8517 15.1803 70.8517 12.9929V10.8055H71.9525V12.9647C71.9525 15.2085 73.5048 17.2265 75.2123 18.2285ZM93.9662 16.3516H92.8937V9.71892H93.9662V16.3516ZM93.9803 22.0528H92.8937V17.8615H90.1842V17.0007H93.9803V22.0528ZM90.3535 21.6859C89.5632 21.8411 88.0956 21.9964 86.8679 21.9964H85.4425V19.0752H88.4484V17.8333H85.4143V17.0007H89.4503V19.8372H86.4586V21.1638C87.7005 21.1638 89.5068 21.065 90.2265 20.8674L90.3535 21.6859ZM87.4323 10.2552C89.1963 10.2552 90.6216 11.3841 90.6216 13.0494C90.6216 14.7287 89.1963 15.8153 87.4323 15.8153C85.6683 15.8153 84.2148 14.7428 84.2148 13.0494C84.2148 11.3983 85.6542 10.2552 87.4323 10.2552ZM87.4323 11.2007C86.2187 11.2007 85.2591 11.9345 85.2591 13.0352C85.2591 14.136 86.2046 14.8698 87.4323 14.8698C88.7165 14.8698 89.5774 14.136 89.5774 13.0494C89.5774 11.9486 88.7165 11.2007 87.4323 11.2007ZM107.235 20.3594H96.1004V19.4562H107.235V20.3594ZM106.148 13.9102C106.148 15.8012 104.356 17.0289 101.646 17.0289C98.9651 17.0289 97.1729 15.8012 97.1729 13.9102C97.1729 12.0333 98.9651 10.7914 101.646 10.7914C104.37 10.7914 106.148 12.0333 106.148 13.9102ZM105.076 13.9243C105.076 12.5837 103.721 11.6946 101.646 11.6946C99.6002 11.6946 98.2454 12.5837 98.2454 13.9243C98.2454 15.2367 99.6002 16.1117 101.646 16.1117C103.707 16.1117 105.076 15.2367 105.076 13.9243ZM118.372 22.0528H117.3V15.4484H115.084V14.5311H117.3V9.71892H118.372V22.0528ZM115.31 17.8333L115.423 18.7224C114.153 18.9482 111.458 19.1316 109.623 19.1316H108.734V14.3194H113.278V11.7793H108.734V10.8902H114.351V15.2226H109.806V18.2143C111.415 18.2143 113.772 18.1015 115.31 17.8333ZM133.711 9.71892V14.8557H135.729V15.773H133.711V22.0528H132.639V9.71892H133.711ZM130.508 11.0455C130.437 15.0533 128.123 17.9462 124.948 19.5973L124.284 18.7506C127.361 17.3253 129.125 14.7287 129.351 11.9486H124.708V11.0455H130.508ZM146.514 22.0528H145.442V9.71892H146.514V22.0528ZM142.887 11.0313C142.831 15.0391 140.375 18.1015 137.186 19.6114L136.565 18.7647C139.684 17.3959 141.518 14.7146 141.744 11.9345H137.017V11.0313H142.887Z" fill="white"/>
<path d="M164.05 15.842H163.405V17.1322H164.05V15.842ZM180.823 17.1322C181.179 17.1322 181.468 16.8434 181.468 16.4871C181.468 16.1308 181.179 15.842 180.823 15.842V17.1322ZM175.017 10.0359V9.3908H173.727V10.0359H175.017ZM180.449 16.9886C180.762 17.1592 181.154 17.044 181.324 16.7312C181.495 16.4184 181.38 16.0265 181.067 15.8559L180.449 16.9886ZM173.727 22.8735L173.727 23.5186L175.017 23.5186V22.8735H173.727ZM164.05 17.1322H180.758V15.842H164.05V17.1322ZM180.758 17.1322H180.823V15.842H180.758V17.1322ZM173.727 10.0359C173.727 10.9858 174.24 11.893 174.869 12.666C175.512 13.4548 176.353 14.1968 177.17 14.8282C177.991 15.4626 178.809 16.0013 179.42 16.3806C179.726 16.5707 179.981 16.7216 180.161 16.8255C180.251 16.8774 180.322 16.9177 180.371 16.9452C180.395 16.9589 180.414 16.9695 180.428 16.9768C180.434 16.9804 180.439 16.9833 180.443 16.9852C180.445 16.9862 180.446 16.987 180.447 16.9876C180.448 16.9879 180.448 16.9881 180.448 16.9883C180.449 16.9884 180.449 16.9884 180.449 16.9885C180.449 16.9886 180.449 16.9886 180.758 16.4223C181.067 15.8559 181.067 15.856 181.067 15.856C181.067 15.856 181.067 15.856 181.067 15.856C181.067 15.8559 181.067 15.8559 181.067 15.8557C181.066 15.8554 181.065 15.8549 181.064 15.8543C181.061 15.8529 181.057 15.8506 181.052 15.8476C181.041 15.8415 181.024 15.8322 181.002 15.8197C180.957 15.7948 180.891 15.7573 180.806 15.7084C180.637 15.6104 180.393 15.4665 180.101 15.2847C179.514 14.9202 178.735 14.4066 177.959 13.8073C177.18 13.205 176.424 12.5318 175.87 11.851C175.302 11.1544 175.017 10.5376 175.017 10.0359H173.727ZM180.758 16.4871C180.516 15.889 180.516 15.8891 180.516 15.8891C180.516 15.8892 180.516 15.8893 180.515 15.8893C180.515 15.8895 180.515 15.8897 180.514 15.8899C180.513 15.8904 180.511 15.8911 180.509 15.8919C180.505 15.8934 180.5 15.8957 180.493 15.8985C180.479 15.9042 180.46 15.9124 180.435 15.9231C180.384 15.9444 180.312 15.9756 180.221 16.0164C180.038 16.0979 179.779 16.2178 179.47 16.3736C178.853 16.6842 178.026 17.1414 177.194 17.7251C176.366 18.3065 175.511 19.0289 174.859 19.8763C174.205 20.7246 173.727 21.7347 173.727 22.8735H175.017C175.017 22.1094 175.337 21.3697 175.881 20.6637C176.425 19.9568 177.167 19.3206 177.936 18.7811C178.701 18.2439 179.47 17.8181 180.05 17.526C180.34 17.3804 180.58 17.269 180.747 17.1945C180.83 17.1572 180.895 17.1293 180.938 17.111C180.96 17.1018 180.976 17.0951 180.986 17.0908C180.992 17.0886 180.995 17.0871 180.998 17.0862C180.999 17.0857 180.999 17.0854 181 17.0852C181 17.0852 181 17.0851 181 17.0851C181 17.0851 181 17.0852 181 17.0852C181 17.0852 181 17.0853 180.758 16.4871Z" fill="white"/>
</svg>
