<svg width="298" height="321" viewBox="0 0 298 321" fill="none" xmlns="http://www.w3.org/2000/svg">
<g filter="url(#filter0_d_115_2630)">
<path fill-rule="evenodd" clip-rule="evenodd" d="M85.6651 270.443L70.729 282.076L52.9119 285.156L55.1227 278.674L51.5452 267.473L45.8626 251.891L47.0859 241.403L41.2043 235.11L38.2481 231.947L35.8748 227.532L45.7596 211.931L80.7201 182.616L86.2599 184.119L92.4081 175.952L118.426 155.495L148.683 125.936L211.421 78.0448L236.268 57.4442L256.165 63.7158L259.292 77.2885L254 78.9999L254.497 85.43L246.374 85.5859L247.61 92.8068L242.195 92.9107L242.816 100.948L237.4 101.052L239.127 105.849L228.544 109.272L229.905 118.1L225.104 117.387L223.756 126.268L214.279 126.449L217.484 132.828L207.882 131.402L210.106 142.629L202.722 143.575L202.113 153.246L196.573 151.743L197.443 162.995L188.457 160.753L191.171 169.555L182.308 168.92L180.837 176.193L174.191 177.931L172.229 187.628L164.721 186.967L164.851 197.429L156.728 197.585L154.89 208.889L148.859 209.81L148.251 219.481L138.159 220.48L136.321 231.784L128.322 233.548L125.745 244.062L119.839 246.59L114.554 257.156L107.554 261.136L95.8994 256.848L85.6651 270.443ZM232.232 83.1093L230.475 82.7633L229.195 84.4627L229.115 85.9103L230.659 86.5396L231.791 85.7055L232.232 83.1093ZM69.2712 216L65.8796 220.506L70.4191 243.439L73.092 249.914L75.7912 251.899L79.9365 246.392L76.5626 231.936L74.4068 216.976L69.2712 216Z" fill="white"/>
<path d="M70.729 282.076L70.9348 282.445L70.8681 282.497L70.7886 282.51L70.729 282.076ZM85.6651 270.443L85.9416 270.739L85.9103 270.781L85.8709 270.811L85.6651 270.443ZM52.9119 285.156L52.9715 285.59L52.3256 285.702L52.5701 284.985L52.9119 285.156ZM55.1227 278.674L55.4669 278.525L55.5186 278.687L55.4646 278.845L55.1227 278.674ZM51.5452 267.473L51.8829 267.305L51.8863 267.315L51.8894 267.324L51.5452 267.473ZM45.8626 251.891L45.525 252.059L45.4834 251.945L45.4976 251.822L45.8626 251.891ZM47.0859 241.403L47.3295 241.079L47.4781 241.238L47.4509 241.471L47.0859 241.403ZM38.2481 231.947L38.0045 232.27L37.9663 232.229L37.9387 232.178L38.2481 231.947ZM35.8748 227.532L35.5654 227.763L35.4264 227.505L35.579 227.264L35.8748 227.532ZM45.7596 211.931L45.4638 211.663L45.4977 211.61L45.5436 211.571L45.7596 211.931ZM80.7201 182.616L80.5041 182.256L80.6361 182.145L80.7957 182.188L80.7201 182.616ZM86.2599 184.119L86.5364 184.415L86.3945 184.604L86.1843 184.547L86.2599 184.119ZM92.4081 175.952L92.1316 175.656L92.1624 175.615L92.201 175.585L92.4081 175.952ZM118.426 155.495L118.663 155.836L118.649 155.85L118.633 155.862L118.426 155.495ZM148.683 125.936L148.446 125.595L148.462 125.579L148.48 125.565L148.683 125.936ZM211.421 78.0448L211.635 78.406L211.629 78.4107L211.624 78.4151L211.421 78.0448ZM236.268 57.4442L236.054 57.0829L236.192 56.9686L236.357 57.0205L236.268 57.4442ZM256.165 63.7158L256.254 63.2921L256.463 63.3582L256.521 63.6073L256.165 63.7158ZM259.292 77.2885L259.647 77.18L259.743 77.5989L259.395 77.7118L259.292 77.2885ZM254 78.9999L253.633 79.032L253.606 78.6711L253.898 78.5767L254 78.9999ZM254.497 85.43L254.864 85.398L254.9 85.861L254.51 85.8684L254.497 85.43ZM246.374 85.5859L246.013 85.6657L245.926 85.1558L246.361 85.1475L246.374 85.5859ZM247.61 92.8068L247.971 92.727L248.058 93.2368L247.623 93.2452L247.61 92.8068ZM242.195 92.9107L241.828 92.9427L241.792 92.4797L242.182 92.4723L242.195 92.9107ZM242.816 100.948L243.183 100.916L243.218 101.379L242.829 101.387L242.816 100.948ZM237.4 101.052L237.062 101.218L236.848 100.624L237.387 100.614L237.4 101.052ZM239.127 105.849L239.465 105.683L239.631 106.142L239.23 106.272L239.127 105.849ZM228.544 109.272L228.182 109.343L228.122 108.952L228.441 108.848L228.544 109.272ZM229.905 118.1L230.267 118.029L230.356 118.608L229.866 118.535L229.905 118.1ZM225.104 117.387L224.741 117.302L224.802 116.901L225.143 116.952L225.104 117.387ZM223.756 126.268L224.119 126.353L224.066 126.7L223.769 126.706L223.756 126.268ZM214.279 126.449L213.964 126.669L213.639 126.023L214.266 126.011L214.279 126.449ZM217.484 132.828L217.799 132.608L218.183 133.372L217.445 133.263L217.484 132.828ZM207.882 131.402L207.524 131.495L207.404 130.89L207.921 130.967L207.882 131.402ZM210.106 142.629L210.465 142.536L210.559 143.012L210.152 143.064L210.106 142.629ZM202.722 143.575L202.354 143.534L202.377 143.178L202.675 143.139L202.722 143.575ZM202.113 153.246L202.481 153.287L202.449 153.785L202.038 153.674L202.113 153.246ZM196.573 151.743L196.207 151.775L196.161 151.183L196.649 151.315L196.573 151.743ZM197.443 162.995L197.81 162.963L197.855 163.544L197.374 163.424L197.443 162.995ZM188.457 160.753L188.111 160.897L187.885 160.164L188.526 160.324L188.457 160.753ZM191.171 169.555L191.516 169.411L191.708 170.033L191.155 169.993L191.171 169.555ZM182.308 168.92L181.95 168.81L182.021 168.461L182.324 168.483L182.308 168.92ZM180.837 176.193L181.195 176.303L181.142 176.564L180.922 176.622L180.837 176.193ZM174.191 177.931L173.833 177.821L173.886 177.56L174.106 177.502L174.191 177.931ZM172.229 187.628L172.587 187.738L172.516 188.092L172.209 188.065L172.229 187.628ZM164.721 186.967L164.352 186.965L164.346 186.495L164.741 186.53L164.721 186.967ZM164.851 197.429L165.22 197.43L165.225 197.86L164.864 197.867L164.851 197.429ZM156.728 197.585L156.366 197.494L156.422 197.152L156.715 197.146L156.728 197.585ZM154.89 208.889L155.252 208.98L155.202 209.285L154.943 209.324L154.89 208.889ZM148.859 209.81L148.492 209.769L148.514 209.42L148.806 209.375L148.859 209.81ZM148.251 219.481L148.618 219.522L148.595 219.888L148.288 219.918L148.251 219.481ZM138.159 220.48L137.797 220.389L137.849 220.07L138.122 220.043L138.159 220.48ZM136.321 231.784L136.683 231.875L136.636 232.162L136.395 232.215L136.321 231.784ZM128.322 233.548L127.968 233.418L128.03 233.165L128.248 233.116L128.322 233.548ZM125.745 244.062L126.099 244.192L126.047 244.401L125.875 244.474L125.745 244.062ZM119.839 246.59L119.521 246.36L119.587 246.229L119.708 246.177L119.839 246.59ZM114.554 257.156L114.871 257.385L114.816 257.496L114.718 257.552L114.554 257.156ZM107.554 261.136L107.718 261.532L107.589 261.605L107.451 261.555L107.554 261.136ZM95.8994 256.848L95.6229 256.552L95.7775 256.346L96.0023 256.429L95.8994 256.848ZM230.475 82.7633L230.198 82.4674L230.33 82.2918L230.528 82.3307L230.475 82.7633ZM232.232 83.1093L232.286 82.6767L232.67 82.7524L232.593 83.2038L232.232 83.1093ZM229.195 84.4627L228.828 84.4255L228.836 84.2769L228.919 84.1668L229.195 84.4627ZM229.115 85.9103L229.001 86.3248L228.728 86.2135L228.747 85.8731L229.115 85.9103ZM230.659 86.5396L230.857 86.9135L230.71 87.0214L230.545 86.9541L230.659 86.5396ZM231.791 85.7055L232.152 85.8001L232.121 85.9822L231.989 86.0795L231.791 85.7055ZM65.8796 220.506L65.521 220.599L65.4771 220.377L65.6031 220.21L65.8796 220.506ZM69.2712 216L68.9947 215.704L69.126 215.53L69.3227 215.567L69.2712 216ZM70.4191 243.439L70.0889 243.627L70.0702 243.581L70.0604 243.532L70.4191 243.439ZM73.092 249.914L72.9025 250.286L72.8098 250.218L72.7618 250.102L73.092 249.914ZM75.7912 251.899L76.0677 252.195L75.8649 252.464L75.6018 252.271L75.7912 251.899ZM79.9365 246.392L80.2915 246.282L80.3452 246.512L80.213 246.688L79.9365 246.392ZM76.5626 231.936L76.2076 232.046L76.2026 232.024L76.1994 232.002L76.5626 231.936ZM74.4068 216.976L74.4583 216.543L74.7244 216.593L74.77 216.91L74.4068 216.976ZM70.5232 281.708L85.4592 270.075L85.8709 270.811L70.9348 282.445L70.5232 281.708ZM52.8523 284.722L70.6694 281.642L70.7886 282.51L52.9715 285.59L52.8523 284.722ZM55.4646 278.845L53.2538 285.327L52.5701 284.985L54.7809 278.503L55.4646 278.845ZM51.8894 267.324L55.4669 278.525L54.7785 278.823L51.201 267.622L51.8894 267.324ZM46.2003 251.722L51.8829 267.305L51.2076 267.641L45.525 252.059L46.2003 251.722ZM47.4509 241.471L46.2277 251.959L45.4976 251.822L46.7208 241.335L47.4509 241.471ZM41.4479 234.786L47.3295 241.079L46.8423 241.726L40.9608 235.433L41.4479 234.786ZM38.4916 231.623L41.4479 234.786L40.9608 235.433L38.0045 232.27L38.4916 231.623ZM36.1841 227.3L38.5574 231.715L37.9387 232.178L35.5654 227.763L36.1841 227.3ZM46.0554 212.2L36.1705 227.8L35.579 227.264L45.4638 211.663L46.0554 212.2ZM80.9361 182.976L45.9756 212.291L45.5436 211.571L80.5041 182.256L80.9361 182.976ZM86.1843 184.547L80.6445 183.043L80.7957 182.188L86.3355 183.692L86.1843 184.547ZM92.6847 176.248L86.5364 184.415L85.9834 183.823L92.1316 175.656L92.6847 176.248ZM118.633 155.862L92.6153 176.319L92.201 175.585L118.219 155.127L118.633 155.862ZM148.92 126.277L118.663 155.836L118.189 155.154L148.446 125.595L148.92 126.277ZM211.624 78.4151L148.886 126.306L148.48 125.565L211.218 77.6744L211.624 78.4151ZM236.483 57.8054L211.635 78.406L211.206 77.6835L236.054 57.0829L236.483 57.8054ZM256.077 64.1395L236.18 57.8679L236.357 57.0205L256.254 63.2921L256.077 64.1395ZM258.936 77.397L255.81 63.8243L256.521 63.6073L259.647 77.18L258.936 77.397ZM253.898 78.5767L259.189 76.8652L259.395 77.7118L254.103 79.4232L253.898 78.5767ZM254.13 85.4621L253.633 79.032L254.367 78.9679L254.864 85.398L254.13 85.4621ZM246.361 85.1475L254.485 84.9916L254.51 85.8684L246.387 86.0243L246.361 85.1475ZM247.249 92.8865L246.013 85.6657L246.735 85.5061L247.971 92.727L247.249 92.8865ZM242.182 92.4723L247.597 92.3684L247.623 93.2452L242.207 93.3491L242.182 92.4723ZM242.449 100.98L241.828 92.9427L242.561 92.8786L243.183 100.916L242.449 100.98ZM237.387 100.614L242.803 100.51L242.829 101.387L237.413 101.491L237.387 100.614ZM238.788 106.015L237.062 101.218L237.739 100.886L239.465 105.683L238.788 106.015ZM228.441 108.848L239.024 105.426L239.23 106.272L228.647 109.695L228.441 108.848ZM229.542 118.171L228.182 109.343L228.907 109.2L230.267 118.029L229.542 118.171ZM225.143 116.952L229.943 117.665L229.866 118.535L225.065 117.822L225.143 116.952ZM223.394 126.182L224.741 117.302L225.466 117.473L224.119 126.353L223.394 126.182ZM214.266 126.011L223.743 125.829L223.769 126.706L214.292 126.888L214.266 126.011ZM217.168 133.047L213.964 126.669L214.594 126.23L217.799 132.608L217.168 133.047ZM207.921 130.967L217.523 132.392L217.445 133.263L207.843 131.837L207.921 130.967ZM209.747 142.722L207.524 131.495L208.241 131.309L210.465 142.536L209.747 142.722ZM202.675 143.139L210.06 142.193L210.152 143.064L202.768 144.011L202.675 143.139ZM201.746 153.205L202.354 143.534L203.089 143.616L202.481 153.287L201.746 153.205ZM196.649 151.315L202.189 152.819L202.038 153.674L196.498 152.17L196.649 151.315ZM197.076 163.027L196.207 151.775L196.94 151.711L197.81 162.963L197.076 163.027ZM188.526 160.324L197.512 162.566L197.374 163.424L188.387 161.182L188.526 160.324ZM190.825 169.7L188.111 160.897L188.802 160.609L191.516 169.411L190.825 169.7ZM182.324 168.483L191.186 169.118L191.155 169.993L182.293 169.358L182.324 168.483ZM180.478 176.083L181.95 168.81L182.667 169.031L181.195 176.303L180.478 176.083ZM174.106 177.502L180.751 175.765L180.922 176.622L174.277 178.359L174.106 177.502ZM171.871 187.518L173.833 177.821L174.55 178.041L172.587 187.738L171.871 187.518ZM164.741 186.53L172.249 187.19L172.209 188.065L164.7 187.404L164.741 186.53ZM164.483 197.427L164.352 186.965L165.089 186.968L165.22 197.43L164.483 197.427ZM156.715 197.146L164.838 196.99L164.864 197.867L156.741 198.023L156.715 197.146ZM154.528 208.798L156.366 197.494L157.09 197.676L155.252 208.98L154.528 208.798ZM148.806 209.375L154.836 208.454L154.943 209.324L148.913 210.245L148.806 209.375ZM147.883 219.44L148.492 209.769L149.227 209.851L148.618 219.522L147.883 219.44ZM138.122 220.043L148.214 219.044L148.288 219.918L138.196 220.917L138.122 220.043ZM135.959 231.693L137.797 220.389L138.521 220.571L136.683 231.875L135.959 231.693ZM128.248 233.116L136.247 231.353L136.395 232.215L128.395 233.979L128.248 233.116ZM125.391 243.932L127.968 233.418L128.676 233.678L126.099 244.192L125.391 243.932ZM119.708 246.177L125.614 243.649L125.875 244.474L119.969 247.003L119.708 246.177ZM114.236 256.926L119.521 246.36L120.156 246.819L114.871 257.385L114.236 256.926ZM107.39 260.74L114.39 256.759L114.718 257.552L107.718 261.532L107.39 260.74ZM96.0023 256.429L107.657 260.717L107.451 261.555L95.7966 257.266L96.0023 256.429ZM85.3885 270.147L95.6229 256.552L96.176 257.143L85.9416 270.739L85.3885 270.147ZM230.528 82.3307L232.286 82.6767L232.178 83.5418L230.421 83.1958L230.528 82.3307ZM228.919 84.1668L230.198 82.4674L230.751 83.0592L229.472 84.7586L228.919 84.1668ZM228.747 85.8731L228.828 84.4255L229.563 84.4999L229.482 85.9475L228.747 85.8731ZM230.545 86.9541L229.001 86.3248L229.228 85.4958L230.772 86.125L230.545 86.9541ZM231.989 86.0795L230.857 86.9135L230.46 86.1656L231.593 85.3315L231.989 86.0795ZM232.593 83.2038L232.152 85.8001L231.43 85.611L231.871 83.0147L232.593 83.2038ZM65.6031 220.21L68.9947 215.704L69.5478 216.296L66.1562 220.802L65.6031 220.21ZM70.0604 243.532L65.521 220.599L66.2382 220.413L70.7777 243.346L70.0604 243.532ZM72.7618 250.102L70.0889 243.627L70.7493 243.252L73.4222 249.727L72.7618 250.102ZM75.6018 252.271L72.9025 250.286L73.2814 249.543L75.9806 251.527L75.6018 252.271ZM80.213 246.688L76.0677 252.195L75.5147 251.603L79.66 246.096L80.213 246.688ZM76.9175 231.826L80.2915 246.282L79.5816 246.502L76.2076 232.046L76.9175 231.826ZM74.77 216.91L76.9257 231.87L76.1994 232.002L74.0436 217.042L74.77 216.91ZM69.3227 215.567L74.4583 216.543L74.3553 217.409L69.2198 216.433L69.3227 215.567Z" fill="black"/>
</g>
<path fill-rule="evenodd" clip-rule="evenodd" d="M91.8967 254.413L64.902 278.197L58.4609 279.205L60.4959 273.483L57.576 263.775L52.9286 254.853L54.1733 245.651L50.9315 230.332L48.4138 227.638L42.0532 230.049L40.1649 228.029L55.7777 211.817L81.8353 192.298L86.6294 193.477L92.1193 186.184L122.1 162.963L148.934 136.373L204.343 92.9585L226.317 74.3356L240.443 63.1173L252.791 72.3784L248.157 74.0044L248.479 79.6154L241.409 79.9503L242.36 86.2348L237.646 86.4581L238.049 93.4719L233.335 93.6951L234.755 97.8476L225.488 101.1L226.52 108.787L222.355 108.281L221.03 116.08L212.781 116.47L215.46 121.97L207.131 120.958L208.872 130.721L202.431 131.73L201.735 140.202L196.941 139.022L197.504 148.842L189.724 147.1L191.934 154.732L184.234 154.393L182.829 160.789L177.017 162.471L175.143 170.999L168.621 170.605L168.555 179.751L161.485 180.086L159.691 190.017L154.428 190.969L153.733 199.442L144.935 200.562L143.141 210.492L136.151 212.23L133.728 221.488L128.546 223.843L123.766 233.212L119.762 235.511L104.31 254.529L95.9004 252.114L94.0121 250.093L91.8967 254.413ZM233.16 80.3412L228.996 79.8352L225.702 84.2109L225.314 87.7457L228.929 88.981L231.755 86.7374L233.16 80.3412ZM69.7583 208.342L62.0726 218.552L67.4582 250.648L70.9271 259.627L77.3682 258.618L83.407 250.596L79.2944 230.396L76.9092 209.41L69.7583 208.342Z" fill="black"/>
<g filter="url(#filter1_d_115_2630)">
<path d="M61.1327 114.686L69.0544 106.302L68.2128 105.947L74.6751 105.336L80.208 109.444L87.0473 115.907L92.1888 111.711L109.17 131.116L142.663 167.242L139.931 171.379L159.708 199.024L182.091 220.174L193.681 233.364L223.724 265.112L231.436 276.878L238.024 278.624L260.456 254.885L263.683 248.978L261.008 243.091L247.455 232.524L234.387 220.176L212.004 199.026L197.306 182.898L174.923 161.748L160.127 150.006L156.311 154.044L142.155 137.309L101.177 99.7078L103.972 96.7503L105.378 92.7716L98.6641 88.667L95.575 83.2177L96.8237 80.6506L105.026 79.4437L112.606 77.6492L126.089 75.8347L140.816 75.1952L141.369 67.1484L131.05 61.8768L112.097 60.7618L96.1262 60.2262L83.8862 63.2157L66.5531 70.3497L57.4921 81.9412L55.3185 92.2032L43.4843 104.727L39.5098 100.972L27.2036 115.729L47.6532 133.933L60.2661 120.585L57.7163 117.056L61.1327 114.686Z" fill="white"/>
<path d="M61.1327 114.686L69.0544 106.302L68.2128 105.947L74.6751 105.336L80.208 109.444L87.0473 115.907L92.1888 111.711L109.17 131.116L142.663 167.242L139.931 171.379L159.708 199.024L182.091 220.174L193.681 233.364L223.724 265.112L231.436 276.878L238.024 278.624L260.456 254.885L263.683 248.978L261.008 243.091L247.455 232.524L234.387 220.176L212.004 199.026L197.306 182.898L174.923 161.748L160.127 150.006L156.311 154.044L142.155 137.309L101.177 99.7078L103.972 96.7503L105.378 92.7716L98.6641 88.667L95.575 83.2177L96.8237 80.6506L105.026 79.4437L112.606 77.6492L126.089 75.8347L140.816 75.1952L141.369 67.1484L131.05 61.8768L112.097 60.7618L96.1262 60.2262L83.8862 63.2157L66.5531 70.3497L57.4921 81.9412L55.3185 92.2032L43.4843 104.727L39.5098 100.972L27.2036 115.729L47.6532 133.933L60.2661 120.585L57.7163 117.056L61.1327 114.686Z" stroke="black" stroke-width="1.07811"/>
</g>
<path d="M57.4258 113.745L65.8767 104.802L68.5323 100.963L74.2686 100.035L78.9044 103.357L84.5524 108.694L89.8194 104.148L105.692 122.321L148.25 166.767L145.594 170.606L161.393 193.999L179.877 211.465L198.332 231.019L227.041 261.321L233.144 271.32L238.851 272.48L255.224 255.152L258.423 249.71L256.413 244.637L245.088 236.052L230.198 221.982L211.713 204.516L190.691 182.535L172.207 165.069L159.855 155.514L157.214 158.308L130.559 129.947L94.6025 97.0295L97.2434 94.2347L97.2729 92.1464L91.5954 88.8978L90.6422 82.7068L93.826 78.3088L101.132 76.7481L107.925 74.7022L119.926 72.2873L132.953 70.8427L134.039 67.6365L125.252 63.5652L108.6 63.7019L94.5456 64.1761L83.5717 67.5613L67.8589 74.9331L59.1771 85.7745L56.6493 95.0246L44.5012 107.881L41.219 104.779L31.8985 116.075L46.8033 129.101L56.3105 119.04L54.2714 116.055L57.4258 113.745Z" fill="black"/>
<defs>
<filter id="filter0_d_115_2630" x="32.8265" y="56.3686" width="233.517" height="237.933" filterUnits="userSpaceOnUse" color-interpolation-filters="sRGB">
<feFlood flood-opacity="0" result="BackgroundImageFix"/>
<feColorMatrix in="SourceAlpha" type="matrix" values="0 0 0 0 0 0 0 0 0 0 0 0 0 0 0 0 0 0 127 0" result="hardAlpha"/>
<feOffset dx="2" dy="4"/>
<feGaussianBlur stdDeviation="2.3"/>
<feComposite in2="hardAlpha" operator="out"/>
<feColorMatrix type="matrix" values="0 0 0 0 0 0 0 0 0 0 0 0 0 0 0 0 0 0 0.25 0"/>
<feBlend mode="normal" in2="BackgroundImageFix" result="effect1_dropShadow_115_2630"/>
<feBlend mode="normal" in="SourceGraphic" in2="effect1_dropShadow_115_2630" result="shape"/>
</filter>
<filter id="filter1_d_115_2630" x="22.9947" y="58.8864" width="250.076" height="231.788" filterUnits="userSpaceOnUse" color-interpolation-filters="sRGB">
<feFlood flood-opacity="0" result="BackgroundImageFix"/>
<feColorMatrix in="SourceAlpha" type="matrix" values="0 0 0 0 0 0 0 0 0 0 0 0 0 0 0 0 0 0 127 0" result="hardAlpha"/>
<feOffset dx="2.662" dy="5.324"/>
<feGaussianBlur stdDeviation="3.0613"/>
<feComposite in2="hardAlpha" operator="out"/>
<feColorMatrix type="matrix" values="0 0 0 0 0 0 0 0 0 0 0 0 0 0 0 0 0 0 0.25 0"/>
<feBlend mode="normal" in2="BackgroundImageFix" result="effect1_dropShadow_115_2630"/>
<feBlend mode="normal" in="SourceGraphic" in2="effect1_dropShadow_115_2630" result="shape"/>
</filter>
</defs>
</svg>
